<svg viewBox="0 0 504.45 81.85" xmlns="http://www.w3.org/2000/svg"><path d="m0 40.3v-32.63a7.67 7.67 0 0 1 7.67-7.67h32.63a7.67 7.67 0 0 1 5.43 2.25l33.88 33.87a7.68 7.68 0 0 1 0 10.85l-32.61 32.64a7.68 7.68 0 0 1 -10.85 0l-33.9-33.88a7.67 7.67 0 0 1 -2.25-5.43zm17.91-30.07a7.68 7.68 0 1 0 7.67 7.68 7.68 7.68 0 0 0 -7.67-7.68z" fill="#2269dc" opacity=".97"/><g fill="#000c2d"><path d="m115.41 59.06c-9.37 0-15.92-5.47-16.32-12.42h9.51c.34 2.84 3 5 6.75 5s5.73-1.69 5.73-3.85c0-6.68-21.11-2.43-21.11-16.12 0-6.21 5.53-11.2 14.77-11.2 9 0 14.5 4.92 15 12.34h-9c-.27-2.9-2.56-4.85-6.27-4.85-3.51 0-5.33 1.41-5.33 3.57 0 6.82 20.71 2.57 21 16.26-.02 6.41-5.62 11.27-14.73 11.27z"/><path d="m149.14 20.47a14.77 14.77 0 0 1 12.35 5.94v-5.33h9.51v37.37h-9.51v-5.45a14.75 14.75 0 0 1 -12.41 6.08c-9.45 0-17-7.76-17-19.43s7.55-19.18 17.06-19.18zm2.43 8.3c-5.06 0-9.85 3.77-9.85 10.86s4.79 11.13 9.85 11.13 9.92-3.91 9.92-11-4.72-10.99-9.92-10.99z"/><path d="m183 21.08 9.44 28.67 9.45-28.67h10l-13.77 37.37h-11.47l-13.76-37.37z"/><path d="m214.24 11.09a5.81 5.81 0 1 1 5.8 5.53 5.54 5.54 0 0 1 -5.8-5.53zm1 10h9.45v37.36h-9.45z"/><path d="m256.81 37.81c0-6-3.31-9.25-8.3-9.25s-8.43 3.24-8.43 9.25v20.64h-9.44v-37.37h9.44v4.65a14 14 0 0 1 11.27-5.19c8.7 0 14.9 5.66 14.9 16v21.91h-9.44z"/><path d="m286.49 20.47c5.87 0 10.12 2.7 12.35 5.94v-5.33h9.51v37.64c0 10.12-6.21 18.15-18.49 18.15-10.52 0-17.86-5.27-18.86-13.87h9.38c.94 3.37 4.45 5.6 9.17 5.6 5.2 0 9.25-3 9.25-9.92v-5.8a14.75 14.75 0 0 1 -12.35 6.14c-9.51 0-17.07-7.76-17.07-19.43s7.62-19.12 17.11-19.12zm2.43 8.3c-5.06 0-9.85 3.77-9.85 10.86s4.79 11.13 9.85 11.13 9.92-3.91 9.92-11-4.73-10.99-9.92-10.99z"/><path d="m328.52 59.06c-9.38 0-15.92-5.47-16.33-12.42h9.52c.33 2.84 3 5 6.74 5s5.74-1.69 5.74-3.85c0-6.68-21.12-2.43-21.12-16.12 0-6.21 5.53-11.2 14.77-11.2 9 0 14.51 4.92 15.05 12.34h-9c-.27-2.9-2.57-4.85-6.28-4.85-3.5 0-5.32 1.41-5.32 3.57 0 6.82 20.71 2.57 21 16.26-.06 6.41-5.66 11.27-14.77 11.27z"/><path d="m354.49 58.92a5.53 5.53 0 1 1 5.74-5.53 5.56 5.56 0 0 1 -5.74 5.53z"/><path d="m380.53 20.47c9.31 0 15.58 4.86 17.61 13.22h-10.14a7.34 7.34 0 0 0 -7.49-5.19c-5.26 0-8.77 4-8.77 11.26s3.46 11.24 8.72 11.24c3.92 0 6.34-1.75 7.49-5.13h10.19c-2 8-8.3 13.23-17.61 13.23-10.79 0-18.48-7.56-18.48-19.3s7.69-19.33 18.48-19.33z"/><path d="m419.66 59.06c-10.8 0-19-7.56-19-19.3s8.43-19.29 19.23-19.29 19.26 7.53 19.26 19.29-8.63 19.3-19.49 19.3zm0-8.23c5 0 9.78-3.65 9.78-11.07s-4.66-11.06-9.65-11.06-9.51 3.57-9.51 11.06 4.32 11.07 9.38 11.07z"/><path d="m495 37.81c0-5.94-3.31-9-8.3-9s-8.36 3.1-8.36 9v20.64h-9.44v-20.64c0-5.94-3.3-9-8.3-9s-8.43 3.1-8.43 9v20.64h-9.44v-37.37h9.44v4.52a13.59 13.59 0 0 1 11-5.06c5.8 0 10.59 2.49 13.15 7.15a14.8 14.8 0 0 1 12.82-7.15c9 0 15.31 5.66 15.31 16v21.91h-9.45z"/></g></svg>